<svg xmlns="http://www.w3.org/2000/svg" viewBox="0 0 334.56 334.64"><defs><style>.f3ab6ee2-790a-48f1-b86d-490e6cfe57e0{fill:#526a80;}</style></defs><g id="ece1ba9d-af94-4278-bdb0-5ee5e93fe541" data-name="Capa 2"><g id="a9ba7f2c-454b-4753-8af4-a6346f525503" data-name="Capa 1"><g id="ec2e6ae6-f113-434a-8e73-eb338788161c" data-name="fbfcce64-a8b1-4449-bc9b-940581d07731"><g id="a3448ea0-ba12-484e-8336-d065f8aa460f" data-name="f4397913-b935-414b-8cf8-b598df5e506c"><path class="f3ab6ee2-790a-48f1-b86d-490e6cfe57e0" d="M0,102.91c.63-2.39,1.17-4.8,1.89-7.17,4-13.24,17.21-23.31,31.52-23.57q28-.51,56-.32c5,0,6.83-1.18,7-6.6,1-29.37,27.45-58.83,57-64C194.2-6,231,19.34,238.5,60c.69,3.72,0,9.28,2.2,10.74,2.93,2,8,1,12.12,1,16.66.19,33.33.08,50,.5a32.72,32.72,0,0,1,31.25,26.12,35,35,0,0,1-.66,14.73q-23.18,93.82-47,187.49c-2,7.85-6.13,15.46-10.61,22.31-5.32,8.13-14,11.68-23.67,11.69q-84,.12-168,0c-13.74,0-24.52-6.27-29.67-19-4.71-11.64-8-23.93-11.08-36.14C29.47,224.5,15.82,169.52,2.07,114.58,1.35,111.7.69,108.8,0,105.91Zm167.91-8.15v.3c-42,0-84-.06-126,.1a38.31,38.31,0,0,0-12.13,2.22c-6,2-6.8,4.11-5.27,10.29q16.82,67.71,33.71,135.41,7.41,29.46,15.48,58.76c1.87,6.81,5.73,9.38,12.4,9.38h163c5.67,0,9.59-2.56,11.87-7.51a53.36,53.36,0,0,0,3.26-9.4q22.77-91,45.54-182.15c3-12,.61-15.49-11.9-17a25.09,25.09,0,0,0-3-.13c-11.83-.12-23.66-.29-35.48-.3Q213.66,94.7,167.91,94.76Zm-48-23.51a23.52,23.52,0,0,0,3.14.46q44.19,0,88.39.08c4.13,0,4.55-2,4.25-5.38-2.46-27.61-30.28-48.28-57.38-42.56C135.48,28.67,118.77,49,119.91,71.25Z"/></g></g></g></g></svg>