<svg id="b55a7a29-f949-41f9-a40d-8bbaa9c069b7" data-name="Capa 1" xmlns="http://www.w3.org/2000/svg" viewBox="0 0 24 24"><defs><style>.e356b886-9708-4261-a0a9-2f2df02a2708{fill:none;}.f5e025fd-2e16-4746-a7f2-9004c71469d4{fill:#526a80;}</style></defs><path class="e356b886-9708-4261-a0a9-2f2df02a2708" d="M0,0H24V24H0Z" transform="translate(0 0)"/><path class="f5e025fd-2e16-4746-a7f2-9004c71469d4" d="M16.5,3A6,6,0,0,0,12,5.09,6,6,0,0,0,7.5,3,5.45,5.45,0,0,0,2,8.5C2,12.28,5.4,15.36,10.55,20L12,21.35,13.45,20C18.6,15.36,22,12.28,22,8.5A5.45,5.45,0,0,0,16.5,3ZM12.1,18.55l-.1.1-.1-.1C7.14,14.24,4,11.39,4,8.5A3.42,3.42,0,0,1,7.5,5a3.91,3.91,0,0,1,3.57,2.36h1.87A3.88,3.88,0,0,1,16.5,5,3.42,3.42,0,0,1,20,8.5C20,11.39,16.86,14.24,12.1,18.55Z" transform="translate(0 0)"/></svg>